<svg width="39" height="27" viewBox="0 0 39 27" fill="none" xmlns="http://www.w3.org/2000/svg">
<g id="Group 8">
<path id="Vector 3" d="M1 6.95946C2.27997 4.63141 2.34375 3.32796 1 1H37.3327C38.2272 3.73792 38.2176 5.05493 37.3327 6.95946H1Z" stroke="black"/>
<path id="Vector 4" d="M1 16.23C2.27997 13.9019 2.34375 12.5985 1 10.2705H37.3327C38.2272 13.0084 38.2176 14.3254 37.3327 16.23H1Z" stroke="black"/>
<path id="Vector 5" d="M1 25.5005C2.27997 23.1724 2.34375 21.869 1 19.541H37.3327C38.2272 22.2789 38.2176 23.5959 37.3327 25.5005H1Z" stroke="black"/>
<path id="Vector 6" d="M37.2894 1.04105C37.2894 1.08098 37.2804 1.14002 37.2637 1.21536C37.1844 2.20838 36.968 6.29729 37.2894 6.29729H35.3687C35.3687 6.29729 37.0358 2.24208 37.2637 1.21536C37.2792 1.0216 37.2894 0.945702 37.2894 1.04105Z" fill="black" stroke="black"/>
<path id="Vector 8" d="M31.4409 15.5678L33.4049 10.2705H36.7648C36.7648 10.2705 37.6522 14.9792 37.2085 14.9792C36.7648 14.9792 31.4409 15.5678 31.4409 15.5678Z" fill="black" stroke="black"/>
<path id="Vector 9" d="M28.0039 25.5005L29.9678 19.541H36.8416C37.3326 19.541 37.3326 24.8383 37.3326 24.8383L28.0039 25.5005Z" fill="black" stroke="black"/>
</g>
</svg>
