<svg width="60" height="58" viewBox="0 0 60 58" fill="none" xmlns="http://www.w3.org/2000/svg">
<path d="M13.2907 46.9758C14.8116 43.5122 18.3623 41.083 22.5 41.083H37.5C41.6377 41.083 45.1884 43.5123 46.7093 46.9758M40 22.958C40 28.2968 35.5228 32.6247 30 32.6247C24.4772 32.6247 20 28.2968 20 22.958C20 17.6193 24.4772 13.2913 30 13.2913C35.5228 13.2913 40 17.6193 40 22.958ZM55 28.9997C55 42.3466 43.8071 53.1663 30 53.1663C16.1929 53.1663 5 42.3466 5 28.9997C5 15.6528 16.1929 4.83301 30 4.83301C43.8071 4.83301 55 15.6528 55 28.9997Z" stroke="#FFBF1D" stroke-width="2" stroke-linecap="round" stroke-linejoin="round"/>
</svg>
