<svg width="37" height="28" viewBox="0 0 37 28" fill="none" xmlns="http://www.w3.org/2000/svg">
<path d="M0.972072 12.7636C1.05704 12.7248 1.14205 12.6879 1.2249 12.6529C2.66514 12.043 4.12449 11.4719 5.58173 10.9008C5.66032 10.9008 5.79199 10.8173 5.86634 10.7901C5.97893 10.7454 6.09153 10.7026 6.20411 10.658C6.42079 10.5725 6.63747 10.489 6.85202 10.4035C7.28537 10.2345 7.71656 10.0655 8.1499 9.8965L10.7436 8.88058C12.4727 8.20459 14.204 7.52666 15.9332 6.85067C17.6623 6.17469 19.3935 5.49675 21.1227 4.82077C22.8518 4.14478 24.5831 3.46686 26.3122 2.79087C28.0413 2.11488 29.7726 1.43695 31.5018 0.76096C31.8863 0.609445 32.3026 0.38411 32.7147 0.318065C33.061 0.261733 33.3987 0.152959 33.7471 0.0927413C34.4077 -0.0218659 35.1363 -0.0684815 35.7693 0.1821C35.9881 0.269512 36.1899 0.391889 36.3578 0.545346C37.1607 1.27184 37.0481 2.46452 36.8782 3.48627C35.695 10.6075 34.5118 17.7306 33.3265 24.8518C33.165 25.8288 32.9441 26.9011 32.1008 27.5188C31.387 28.0413 30.3716 28.0996 29.4901 27.8782C28.6085 27.6548 27.831 27.1866 27.0684 26.7263C23.9054 24.811 20.7403 22.8957 17.5773 20.9804C16.8253 20.5258 15.9884 19.9314 15.9969 19.1059C16.0012 18.6086 16.3261 18.1657 16.6575 17.7714C19.4063 14.4925 23.3723 12.2392 26.3228 9.11174C26.7392 8.67079 27.0663 7.87437 26.4949 7.6199C26.155 7.46839 25.7641 7.67429 25.454 7.87048C21.5539 10.3472 17.6559 12.8258 13.7558 15.3025C12.4834 16.1105 11.1494 16.9419 9.61566 17.1401C8.2434 17.3188 6.86265 16.9691 5.535 16.6117C4.42189 16.3126 3.31088 16.0056 2.20414 15.689C1.61573 15.522 1.00819 15.3413 0.553602 14.9625C0.099014 14.5837 -0.162233 13.9466 0.111795 13.4416C0.283859 13.1249 0.617371 12.9249 0.967872 12.7617L0.972072 12.7636Z" fill="#FFBF1D"/>
</svg>
